<svg width="122" height="100" viewBox="0 0 122 100" fill="none" xmlns="http://www.w3.org/2000/svg">
<circle cx="58" cy="50" r="49.75" stroke="white" stroke-width="0.5"/>
<path d="M103.92 36H114.6V36.76H112.4V63.24H114.6V64H102.4V63.24H104.6V38.24H104.44L98.44 64H93.44L86.4 38.12H86.24V63.24H88.44V64H83V63.24H85.2V36.76H83V36H93.8L99.12 56.6L103.92 36Z" fill="white"/>
<path d="M41.84 36H62.64L63.04 44.32H62.32C61.3333 41.44 60.1867 39.48 58.88 38.44C57.6 37.4 55.68 36.88 53.12 36.88H52V49.88H53.8C55.08 49.88 56.1467 49.4133 57 48.48C57.8533 47.5467 58.44 46.2667 58.76 44.64H59.36V56.48H58.68C58.2533 54.48 57.6533 53.0533 56.88 52.2C56.1333 51.3467 55.1067 50.92 53.8 50.92H52V63.12H56.96V64H41.84V63.12H44.2V36.88H41.84V36Z" fill="white"/>
<path d="M0.6 36H12.36C16.3867 36 19.3867 36.5867 21.36 37.76C23.3333 38.9067 24.32 40.9733 24.32 43.96C24.32 47.2667 23.12 49.5467 20.72 50.8C18.48 51.9467 15.3467 52.52 11.32 52.52H11V63.24H16V64H0.6V63.24H3.2V36.76H0.6V36ZM11 36.76V51.76H11.84C13.44 51.76 14.5467 51.2133 15.16 50.12C15.7733 49.0267 16.08 47.2533 16.08 44.8V42.88C16.08 40.6133 15.7867 39.0267 15.2 38.12C14.64 37.2133 13.6 36.76 12.08 36.76H11Z" fill="white"/>
</svg>
