<svg width="60" height="49" viewBox="0 0 60 49" fill="none" xmlns="http://www.w3.org/2000/svg">
<g clip-path="url(#clip0_2_3)">
<path d="M28.5246 48.8776C42.0375 48.8776 52.9918 37.9634 52.9918 24.5001C52.9918 11.0367 42.0375 0.122559 28.5246 0.122559C15.0117 0.122559 4.05737 11.0367 4.05737 24.5001C4.05737 37.9634 15.0117 48.8776 28.5246 48.8776Z" stroke="white" stroke-width="0.5"/>
<path d="M51.1082 17.64H56.3607V18.0124H55.2787V30.9876H56.3607V31.36H50.3607V30.9876H51.4427V18.7376H51.364L48.4131 31.36H45.9541L42.4918 18.6788H42.4131V30.9876H43.4951V31.36H40.8197V30.9876H41.9017V18.0124H40.8197V17.64H46.1312L48.7476 27.734L51.1082 17.64Z" fill="white"/>
<path d="M20.577 17.64H30.8065L31.0033 21.7168H30.6492C30.1639 20.3056 29.6 19.3452 28.9574 18.8356C28.3278 18.326 27.3836 18.0712 26.1246 18.0712H25.5737V24.4412H26.459C27.0885 24.4412 27.6131 24.2125 28.0328 23.7552C28.4524 23.2979 28.741 22.6707 28.8983 21.8736H29.1934V27.6752H28.859C28.6491 26.6952 28.3541 25.9961 27.9737 25.578C27.6065 25.1599 27.1016 24.9508 26.459 24.9508H25.5737V30.9288H28.0131V31.36H20.577V30.9288H21.7377V18.0712H20.577V17.64Z" fill="white"/>
<path d="M0.295044 17.64H6.07865C8.059 17.64 9.53441 17.9275 10.5049 18.5024C11.4754 19.0643 11.9606 20.0769 11.9606 21.5404C11.9606 23.1607 11.3705 24.2779 10.1901 24.892C9.08849 25.4539 7.54752 25.7348 5.56718 25.7348H5.4098V30.9876H7.86881V31.36H0.295044V30.9876H1.57373V18.0124H0.295044V17.64ZM5.4098 18.0124V25.3624H5.82291C6.6098 25.3624 7.15408 25.0945 7.4557 24.5588C7.75732 24.0231 7.90816 23.1541 7.90816 21.952V21.0112C7.90816 19.9005 7.76391 19.1231 7.47537 18.6788C7.19996 18.2345 6.68849 18.0124 5.94095 18.0124H5.4098Z" fill="white"/>
</g>
<defs>
<clipPath id="clip0_2_3">
<rect width="60" height="49" fill="white"/>
</clipPath>
</defs>
</svg>
